<?xml version="1.0" encoding="UTF-8" ?>
<!DOCTYPE svg PUBLIC "-//W3C//DTD SVG 1.1//EN" "http://www.w3.org/Graphics/SVG/1.1/DTD/svg11.dtd">
<svg width="476pt" height="195pt" viewBox="0 0 476 195" version="1.1" xmlns="http://www.w3.org/2000/svg">
<g id="#D11342ff">
<path fill="#D11342" opacity="1.00" d=" M 51.79 1.81 C 55.89 1.66 59.88 0.48 64.00 0.62 C 71.48 0.32 78.89 1.59 86.24 2.83 C 90.57 4.08 94.90 5.33 99.15 6.85 C 102.30 8.27 105.44 9.71 108.50 11.31 C 115.49 15.44 122.08 20.42 127.23 26.74 C 128.33 28.32 129.48 29.86 130.57 31.45 C 131.09 32.21 131.60 32.97 132.12 33.73 C 132.39 34.21 132.93 35.18 133.20 35.66 C 134.17 37.73 135.12 39.80 136.08 41.88 C 136.38 42.89 136.70 43.90 137.03 44.90 C 137.38 46.15 137.74 47.40 138.14 48.63 C 140.34 59.11 139.59 69.95 137.12 80.32 C 136.72 81.55 136.36 82.79 136.00 84.04 C 135.63 85.05 135.27 86.06 134.90 87.07 C 134.63 88.18 134.38 89.29 134.15 90.42 L 133.64 90.00 C 134.34 91.85 135.02 93.71 135.67 95.59 L 136.16 95.42 C 136.39 96.60 136.66 97.78 136.95 98.95 C 137.54 100.48 138.11 102.03 138.64 103.58 L 139.11 103.46 C 139.39 104.65 139.71 105.83 140.07 107.00 C 140.42 108.18 140.75 109.37 141.08 110.57 C 140.22 111.83 139.39 113.11 138.55 114.39 C 135.69 120.84 134.99 128.92 138.54 135.23 C 138.14 137.39 137.24 139.39 136.32 141.36 C 131.33 147.64 124.76 152.43 117.23 155.21 C 114.91 155.89 112.63 156.67 110.39 157.57 C 110.36 158.16 110.30 159.34 110.28 159.93 C 109.81 160.93 109.36 161.95 108.93 162.97 C 108.61 163.98 108.29 164.99 107.97 166.01 C 107.64 167.01 107.32 168.02 107.01 169.04 C 106.63 170.02 106.24 171.01 105.85 172.00 C 105.61 173.21 105.39 174.42 105.20 175.63 L 104.38 175.56 C 104.35 176.16 104.31 177.36 104.28 177.97 C 103.81 178.96 103.36 179.96 102.93 180.98 C 102.58 181.99 102.23 182.99 101.87 184.00 C 101.62 185.19 101.39 186.38 101.19 187.59 L 100.35 187.50 L 100.37 188.95 C 94.22 187.98 88.12 186.80 82.01 185.62 C 75.25 184.60 68.59 182.96 61.80 182.13 C 58.08 181.15 54.28 180.46 50.44 180.12 C 49.77 173.85 50.42 167.23 47.49 161.44 C 46.95 160.63 46.43 159.82 45.91 159.00 C 40.13 152.45 30.78 151.11 22.51 151.36 C 20.10 147.87 17.45 144.55 14.87 141.19 C 10.81 135.89 6.83 130.52 2.71 125.27 C 1.93 124.17 1.14 123.08 0.34 121.99 C 5.55 115.30 10.72 108.57 15.84 101.80 C 19.73 96.83 23.52 91.78 27.31 86.72 C 26.85 85.84 26.41 84.95 25.95 84.07 C 23.97 79.40 21.95 74.75 19.91 70.12 C 19.39 68.89 18.86 67.68 18.32 66.46 C 17.16 63.95 16.19 61.36 15.15 58.80 C 15.32 62.22 16.23 65.56 16.32 68.99 C 16.22 75.67 17.74 82.24 17.46 88.94 C 14.17 91.58 11.02 94.41 7.82 97.16 L 6.53 97.60 C 4.71 91.92 3.35 86.11 1.86 80.34 C 0.81 74.21 0.15 68.03 0.00 61.81 L 0.00 60.21 C 0.21 55.03 0.75 49.86 1.84 44.79 C 2.85 41.81 3.83 38.81 4.87 35.83 C 6.69 32.35 8.68 28.97 10.76 25.65 C 15.97 19.55 21.73 13.81 28.78 9.86 C 29.27 9.59 30.27 9.05 30.76 8.78 C 33.79 7.44 36.83 6.15 39.92 4.95 C 40.95 4.65 41.98 4.34 43.00 4.02 C 44.28 3.67 45.57 3.33 46.85 2.96 C 48.51 2.63 50.17 2.29 51.79 1.81 M 46.40 97.46 L 46.71 98.21 C 44.66 98.21 42.89 99.18 41.17 100.16 C 39.95 101.01 38.77 101.91 37.56 102.76 L 37.55 103.22 C 37.22 103.55 36.55 104.21 36.22 104.54 L 35.62 104.53 C 35.11 105.55 34.63 106.58 34.15 107.62 L 33.47 107.26 C 32.96 108.70 32.41 110.13 32.22 111.65 L 31.54 111.35 C 30.18 115.57 30.14 120.02 30.61 124.39 L 31.23 124.35 C 31.41 125.54 31.64 126.73 31.90 127.91 C 32.90 129.41 33.83 130.97 34.70 132.55 L 35.08 132.49 C 36.17 134.75 38.35 136.09 40.19 137.66 L 41.63 137.37 L 41.42 138.89 C 41.97 138.76 43.09 138.49 43.64 138.36 L 43.41 139.90 C 43.81 139.81 44.62 139.64 45.02 139.55 C 46.17 140.61 47.77 140.58 49.21 140.81 C 52.71 141.86 56.72 141.12 59.96 139.60 C 60.36 139.66 61.17 139.78 61.57 139.84 L 61.33 138.78 C 63.38 138.79 64.80 137.27 66.40 136.24 L 66.42 135.38 L 67.69 135.69 L 67.41 134.85 C 67.77 134.51 68.49 133.84 68.86 133.50 L 69.23 133.41 C 70.28 131.81 71.84 130.38 71.78 128.30 L 72.94 128.64 C 72.79 128.08 72.49 126.97 72.34 126.41 L 73.37 126.55 C 74.90 121.59 74.64 116.46 73.36 111.48 L 72.33 111.56 C 72.48 111.01 72.77 109.93 72.92 109.39 L 71.78 109.69 C 71.87 107.12 69.66 105.62 68.13 103.92 C 66.44 102.37 64.86 100.29 62.35 100.19 L 62.60 99.11 C 62.05 99.24 60.96 99.51 60.41 99.64 L 60.55 98.59 C 56.01 96.91 51.14 97.32 46.40 97.46 M 109.37 102.45 L 109.70 103.46 C 108.90 103.44 107.30 103.40 106.50 103.38 L 106.63 104.20 C 103.17 104.59 101.20 107.82 98.99 110.13 C 98.77 110.62 98.32 111.59 98.10 112.08 C 97.52 113.19 97.24 114.39 97.26 115.68 L 96.50 115.47 C 96.21 119.54 96.11 123.69 97.60 127.57 L 98.65 127.36 C 98.55 127.81 98.33 128.72 98.23 129.18 L 99.09 129.54 C 99.85 130.86 100.91 131.97 101.94 133.09 C 104.37 135.03 107.23 136.56 110.37 136.87 C 113.42 138.03 116.55 136.67 119.63 136.43 L 119.32 135.75 C 123.68 135.63 126.34 131.73 129.09 128.89 C 129.33 127.72 129.55 126.54 129.74 125.37 L 130.73 125.51 C 130.67 124.72 130.55 123.14 130.49 122.35 L 131.46 122.40 C 131.71 118.44 130.57 114.62 128.88 111.09 C 127.13 108.79 124.97 106.85 122.91 104.85 C 122.28 104.71 121.01 104.43 120.38 104.30 L 120.51 103.60 C 116.95 102.21 113.13 102.20 109.37 102.45 M 82.08 150.44 L 81.58 150.27 L 81.34 151.37 L 80.23 151.65 L 80.67 152.68 L 79.31 152.33 L 79.66 153.64 L 78.39 153.38 L 78.61 154.58 L 77.84 154.62 C 75.82 157.05 73.61 159.33 71.25 161.43 C 75.24 161.24 79.23 161.46 83.22 161.56 C 84.04 160.27 84.93 159.03 85.77 157.76 C 86.49 156.69 87.21 155.62 87.87 154.51 L 88.82 154.17 C 88.68 153.70 88.42 152.77 88.28 152.31 L 89.93 152.87 L 89.36 151.41 C 89.91 151.34 91.01 151.20 91.55 151.12 C 91.80 154.73 92.67 158.30 92.28 161.94 C 93.32 160.12 94.54 158.41 95.73 156.67 C 96.42 155.89 97.12 155.10 97.82 154.33 C 97.34 152.71 96.78 151.11 96.33 149.48 L 95.81 149.69 C 95.62 148.48 95.32 147.29 94.93 146.14 C 94.33 144.59 93.78 143.03 93.37 141.43 L 92.38 141.61 C 92.54 140.93 92.84 139.55 92.99 138.86 C 89.39 142.75 85.26 146.18 82.08 150.44 Z" />
<path fill="#D11342" opacity="1.00" d=" M 429.40 14.67 C 433.14 26.08 442.72 33.94 449.17 43.74 L 449.78 42.47 C 450.06 42.37 450.62 42.16 450.90 42.06 C 451.06 42.47 451.38 43.29 451.54 43.71 C 451.79 43.04 452.05 42.39 452.33 41.73 C 452.19 41.33 451.89 40.52 451.74 40.12 C 452.45 38.12 452.91 34.40 455.92 35.04 C 455.75 34.55 455.41 33.56 455.24 33.07 C 457.44 33.06 457.35 30.59 458.12 29.17 C 459.64 27.99 461.40 27.06 462.30 25.23 C 463.87 25.62 465.48 25.29 467.10 25.35 C 466.81 25.99 466.25 27.28 465.97 27.93 C 466.85 26.68 468.10 25.93 469.67 26.29 L 469.21 25.61 C 470.11 25.17 471.91 24.29 472.81 23.85 L 472.56 28.50 L 471.40 27.07 C 471.49 28.63 471.53 30.20 471.63 31.77 L 470.39 30.72 C 469.92 32.23 471.32 34.48 469.77 35.60 C 468.37 36.64 466.44 36.43 464.90 37.04 C 465.39 37.39 466.36 38.09 466.85 38.44 C 466.83 42.07 463.72 43.85 461.52 46.16 C 460.56 47.75 459.71 50.94 457.28 49.46 C 457.77 49.99 458.74 51.04 459.23 51.57 L 457.43 51.29 C 457.00 52.81 456.58 54.33 456.22 55.86 C 457.80 56.89 457.62 58.56 457.25 60.15 C 456.83 59.67 455.98 58.71 455.56 58.24 C 454.70 58.67 453.84 59.11 453.00 59.55 C 451.00 62.85 449.09 66.33 446.42 69.14 C 445.75 70.67 445.06 72.20 443.86 73.40 L 443.45 71.58 C 442.66 71.83 441.87 72.08 441.09 72.32 C 440.44 73.40 439.76 74.45 439.14 75.54 L 438.75 75.50 C 439.19 78.35 436.08 79.43 434.53 81.24 C 434.21 83.72 432.36 85.51 431.07 87.51 C 429.61 88.02 428.17 88.54 426.72 89.04 C 427.40 90.58 428.04 92.14 428.79 93.66 C 428.04 93.10 426.56 92.00 425.81 91.45 L 426.79 93.54 C 425.84 94.01 424.92 94.52 424.03 95.06 C 423.86 94.74 423.52 94.10 423.35 93.78 C 424.03 93.65 425.41 93.39 426.09 93.26 L 424.11 91.57 C 424.21 91.12 424.40 90.20 424.50 89.75 C 423.24 89.63 421.84 89.44 422.82 87.99 C 425.58 84.86 429.67 82.66 430.39 78.22 C 430.90 78.16 431.91 78.06 432.42 78.00 C 432.21 77.64 431.78 76.92 431.57 76.56 C 434.47 71.06 439.81 67.33 442.11 61.46 L 440.15 61.24 C 440.46 61.10 441.08 60.82 441.39 60.68 C 441.66 57.89 442.54 55.00 444.51 52.93 C 445.66 50.30 443.15 49.10 441.41 47.85 C 440.85 44.40 437.76 42.50 436.12 39.66 C 434.45 34.27 430.22 30.35 427.74 25.38 C 426.94 23.76 426.20 22.11 425.61 20.41 C 427.80 19.87 428.26 18.00 427.59 16.12 C 428.07 16.28 429.01 16.59 429.48 16.75 L 429.40 14.67 M 468.78 33.16 C 468.39 33.69 467.61 34.75 467.22 35.28 L 467.46 35.88 C 467.79 35.82 468.44 35.71 468.76 35.65 C 469.57 34.56 469.58 33.73 468.78 33.16 Z" />
<path fill="#D11342" opacity="1.00" d=" M 217.45 19.45 C 219.07 18.90 220.02 20.49 219.34 21.85 L 219.57 22.41 C 219.75 22.80 220.12 23.58 220.30 23.97 C 221.60 23.63 222.89 23.28 224.20 22.94 C 223.65 23.37 222.55 24.22 222.00 24.65 C 223.61 25.65 225.23 26.64 226.89 27.57 C 226.46 29.18 226.71 30.64 227.62 31.93 C 227.40 32.08 226.95 32.38 226.72 32.53 C 226.95 34.45 227.09 36.37 227.19 38.30 C 223.13 37.97 224.08 32.71 221.23 30.81 C 219.21 29.44 216.88 28.55 214.49 28.06 C 214.05 28.43 213.18 29.17 212.74 29.54 C 212.49 29.81 212.00 30.35 211.75 30.61 C 204.96 30.17 212.35 32.01 214.00 31.90 C 213.86 31.38 213.57 30.34 213.42 29.82 C 214.35 30.00 216.21 30.36 217.15 30.55 C 216.25 31.21 215.25 31.60 214.15 31.71 C 214.31 32.27 214.63 33.38 214.80 33.93 C 214.57 33.60 214.12 32.94 213.90 32.60 C 210.01 34.32 206.19 36.26 203.20 39.36 C 200.59 40.84 198.20 42.62 196.27 44.94 C 196.59 45.37 197.23 46.23 197.55 46.66 C 196.91 46.64 195.64 46.59 195.00 46.56 C 195.20 47.02 195.58 47.94 195.77 48.40 C 193.21 48.39 193.26 51.29 192.40 53.01 C 190.33 56.84 190.39 61.30 189.36 65.44 C 190.01 66.14 191.31 67.53 191.96 68.22 C 191.18 68.60 190.41 68.97 189.63 69.34 C 188.36 67.63 187.24 65.80 185.97 64.09 C 186.51 66.31 187.92 68.15 188.97 70.14 C 189.80 69.93 191.46 69.52 192.29 69.32 C 188.84 73.47 195.39 73.70 197.27 75.78 C 196.10 75.68 193.76 75.48 192.59 75.38 C 193.81 76.44 195.25 77.23 196.96 76.49 L 196.24 77.61 C 201.39 79.02 206.93 79.85 212.16 78.29 C 212.55 78.89 212.95 79.49 213.34 80.09 C 213.46 79.29 213.71 77.69 213.84 76.89 L 215.08 78.02 L 216.72 77.37 L 219.32 77.62 C 215.69 81.56 210.61 83.90 205.52 85.34 C 199.88 86.54 194.10 85.53 188.59 84.19 C 186.66 82.83 184.28 82.09 182.73 80.24 C 179.70 77.43 178.67 73.32 176.92 69.72 C 177.46 69.69 178.54 69.62 179.08 69.59 C 176.72 69.20 177.45 66.73 177.52 65.16 C 178.26 61.62 178.34 58.00 177.88 54.42 C 179.53 51.48 178.11 46.27 182.75 45.94 C 182.32 45.85 181.46 45.66 181.03 45.56 C 182.39 43.66 185.61 42.22 184.20 39.46 C 185.82 39.85 190.39 39.57 186.22 36.96 L 188.72 37.56 L 188.12 36.27 C 188.68 36.05 189.81 35.60 190.38 35.38 C 190.87 34.37 191.36 33.36 191.85 32.35 C 194.42 30.98 196.81 29.23 199.60 28.30 C 199.50 28.04 199.31 27.53 199.21 27.28 C 201.92 26.34 204.26 24.55 207.09 23.90 C 210.50 22.99 214.04 22.10 216.83 19.81 L 217.45 19.45 Z" />
<path fill="#D11342" opacity="1.00" d=" M 238.09 20.29 C 240.67 20.21 243.37 19.66 245.85 20.64 C 249.30 21.91 253.00 22.18 256.49 23.31 C 258.43 24.04 261.01 23.47 262.39 25.30 C 263.57 25.71 267.07 25.55 265.34 27.68 C 270.88 27.76 272.59 34.80 271.55 39.31 C 270.35 38.13 269.29 36.82 268.02 35.73 C 269.04 37.05 270.20 38.26 271.28 39.54 C 270.60 40.20 269.90 40.85 269.21 41.49 L 269.30 41.75 L 270.68 41.13 L 270.76 43.33 C 268.07 42.89 268.06 45.99 266.90 47.57 C 266.75 48.13 266.46 49.25 266.32 49.81 L 266.82 50.36 C 264.09 54.07 261.88 58.47 257.72 60.81 C 254.19 63.24 250.06 64.49 246.28 66.45 C 251.05 71.11 255.50 76.08 260.19 80.81 C 267.20 86.83 273.07 94.04 280.06 100.08 C 280.26 100.59 280.65 101.61 280.85 102.12 C 281.78 103.01 282.73 103.89 283.69 104.75 C 283.23 104.82 282.31 104.96 281.85 105.03 C 281.80 104.70 281.70 104.02 281.65 103.69 C 278.73 104.18 277.31 101.04 275.30 99.52 C 274.72 99.49 273.57 99.44 273.00 99.42 C 271.32 97.24 269.10 95.61 267.33 93.53 C 266.61 92.26 265.02 92.45 263.81 92.08 C 263.36 91.32 262.92 90.57 262.47 89.81 C 260.99 89.22 259.93 88.00 258.76 86.97 C 255.96 84.70 252.97 82.24 249.12 82.43 C 248.83 82.25 248.24 81.88 247.95 81.70 C 249.34 81.73 250.59 81.30 251.69 80.44 C 249.58 79.61 246.22 80.14 246.03 77.07 C 244.43 76.68 243.43 75.36 242.27 74.32 L 242.76 73.59 C 240.16 73.22 239.50 70.30 237.32 69.18 L 237.88 68.12 C 237.25 67.99 235.99 67.73 235.35 67.60 C 235.51 65.43 235.50 63.25 235.71 61.08 C 234.33 62.76 234.06 64.83 234.49 66.93 L 233.58 66.69 C 232.99 71.23 231.70 75.65 230.86 80.15 C 230.57 82.36 228.92 84.31 226.68 84.68 C 226.46 84.24 226.00 83.35 225.77 82.90 C 226.37 81.59 226.48 79.94 227.81 79.08 C 228.02 75.70 227.13 71.29 229.95 68.80 C 230.36 68.70 231.20 68.51 231.62 68.41 C 231.58 68.31 231.51 68.12 231.48 68.02 C 231.10 67.76 230.35 67.24 229.97 66.99 C 229.27 65.39 229.70 63.66 229.68 62.00 C 229.09 63.57 229.36 66.70 226.66 65.61 C 228.37 63.70 225.32 61.40 227.27 59.80 C 227.80 59.09 228.84 57.68 229.36 56.98 C 229.56 57.53 229.77 58.08 229.98 58.64 C 230.58 57.72 231.30 56.91 232.13 56.20 C 231.30 56.33 229.64 56.60 228.80 56.74 L 229.73 54.47 C 229.23 54.00 228.22 53.05 227.72 52.57 L 230.00 52.82 C 229.70 52.51 229.12 51.89 228.82 51.58 C 229.21 50.97 229.99 49.76 230.38 49.15 C 230.81 49.00 231.66 48.72 232.09 48.57 C 231.43 48.46 230.10 48.22 229.44 48.10 C 230.58 46.84 230.54 45.23 230.53 43.66 L 232.27 43.64 L 232.72 41.37 L 229.75 41.75 C 230.99 41.02 232.28 40.39 233.57 39.76 C 233.39 39.34 233.03 38.52 232.85 38.11 C 232.35 38.64 231.33 39.71 230.82 40.24 C 230.79 38.29 231.29 36.33 233.51 36.17 C 233.50 35.74 233.49 34.87 233.49 34.44 C 231.68 31.05 235.00 27.66 234.67 24.08 L 235.49 24.58 C 235.58 23.92 235.76 22.60 235.85 21.94 C 236.91 22.28 239.04 22.97 240.10 23.32 C 239.60 22.56 238.60 21.05 238.09 20.29 M 248.13 28.93 C 247.74 29.20 246.95 29.72 246.56 29.98 C 246.33 30.35 245.86 31.09 245.63 31.46 C 245.10 34.30 245.15 37.29 244.01 39.98 C 243.27 41.50 242.77 43.11 242.57 44.79 L 241.42 44.63 C 241.92 45.91 241.73 46.97 240.85 47.83 C 241.07 50.54 238.82 54.36 242.21 55.81 L 242.55 54.46 C 245.61 54.60 248.93 55.47 251.74 53.81 C 255.12 52.78 256.82 49.51 259.27 47.25 C 262.01 44.66 261.38 40.55 261.96 37.16 C 260.96 34.22 258.27 32.59 255.65 31.28 C 254.30 30.72 253.00 30.08 251.71 29.41 C 250.88 29.56 249.21 29.84 248.38 29.98 C 248.44 29.58 248.56 28.77 248.62 28.36 C 248.50 28.51 248.25 28.79 248.13 28.93 Z" />
<path fill="#D11342" opacity="1.00" d=" M 276.39 20.56 C 278.86 21.97 281.68 21.04 284.30 20.73 C 283.35 22.66 281.04 22.17 279.33 22.62 C 278.37 21.89 277.31 21.38 276.16 21.07 C 276.22 20.94 276.33 20.69 276.39 20.56 Z" />
<path fill="#D11342" opacity="1.00" d=" M 327.89 21.49 C 328.94 19.62 330.89 21.41 332.43 21.29 C 333.40 21.15 335.32 20.87 336.29 20.74 C 335.19 22.80 332.59 22.16 330.73 22.77 L 330.98 21.66 C 330.21 21.62 328.66 21.53 327.89 21.49 Z" />
<path fill="#D11342" opacity="1.00" d=" M 389.60 21.82 C 394.40 21.25 399.13 19.12 404.04 20.09 C 410.45 21.67 417.85 24.03 420.26 30.92 C 420.15 31.58 419.92 32.89 419.81 33.55 C 420.14 33.91 420.80 34.63 421.13 34.99 C 420.74 38.14 419.62 41.11 418.76 44.14 L 420.54 42.33 C 420.38 44.40 420.35 46.48 420.27 48.56 L 419.54 48.81 C 418.99 50.37 417.84 51.56 416.81 52.80 C 415.18 55.58 412.42 57.41 410.80 60.19 C 410.41 60.27 409.64 60.43 409.25 60.51 C 406.81 64.95 401.31 65.82 396.90 67.22 C 394.00 66.61 391.29 65.34 388.35 64.91 C 388.22 66.38 387.92 67.83 387.34 69.19 C 387.64 69.58 388.26 70.36 388.57 70.75 C 387.34 72.36 386.10 74.05 386.07 76.18 C 384.84 77.12 383.63 78.06 382.47 79.07 C 383.17 79.18 384.56 79.38 385.25 79.48 C 383.43 79.19 382.10 80.22 381.98 82.05 C 381.76 84.67 379.65 87.00 380.41 89.68 C 379.01 91.35 378.52 93.77 376.59 94.95 C 376.48 95.62 376.26 96.95 376.15 97.62 C 376.60 97.63 377.51 97.65 377.97 97.66 C 377.12 97.71 375.42 97.82 374.58 97.87 L 374.20 96.29 L 375.38 96.00 L 373.62 95.54 C 374.21 95.31 375.39 94.85 375.98 94.62 C 372.71 92.88 376.25 90.87 375.88 88.51 C 376.09 88.53 376.49 88.58 376.70 88.61 C 376.02 87.49 375.52 86.31 375.59 84.99 C 377.63 84.01 377.18 81.57 377.58 79.73 L 376.12 80.06 C 376.21 77.57 376.28 75.09 376.56 72.61 L 377.39 72.90 C 377.97 69.47 378.74 66.06 378.44 62.56 C 377.96 59.06 381.45 56.42 380.22 52.89 L 381.35 53.69 C 381.49 50.94 381.80 48.20 382.30 45.50 C 383.01 44.41 383.69 43.29 384.38 42.19 C 383.95 41.89 383.10 41.30 382.67 41.01 C 386.33 36.63 385.04 30.74 386.41 25.69 L 385.27 25.30 C 386.92 23.90 389.08 24.21 391.09 24.13 C 391.11 24.64 391.16 25.66 391.18 26.17 C 391.72 25.35 392.27 24.52 392.82 23.70 C 393.10 24.32 393.65 25.55 393.92 26.17 C 394.73 25.53 395.52 24.86 396.30 24.18 C 397.27 23.71 398.25 23.24 399.22 22.76 C 396.09 23.39 392.21 24.17 389.60 21.82 M 398.23 27.69 C 398.08 28.41 397.79 29.86 397.65 30.59 C 398.05 33.50 395.85 34.90 393.54 35.99 C 394.28 35.81 395.77 35.43 396.51 35.25 C 396.55 36.37 396.61 37.49 396.69 38.61 C 395.85 38.60 394.17 38.56 393.32 38.54 C 393.73 39.11 394.55 40.25 394.96 40.83 C 394.55 41.12 393.74 41.71 393.33 42.01 C 393.61 44.06 394.55 46.64 392.19 47.83 C 392.68 47.67 393.66 47.34 394.16 47.17 C 394.03 47.89 393.79 49.32 393.66 50.04 C 393.22 49.82 392.34 49.38 391.90 49.17 C 392.30 50.65 391.04 51.48 390.33 52.50 L 391.71 52.04 C 390.07 53.77 391.95 54.42 392.82 55.31 C 396.54 54.58 400.44 54.70 404.05 53.40 C 405.99 52.07 407.51 50.15 409.79 49.32 L 409.16 48.34 C 409.79 48.48 411.05 48.76 411.68 48.91 C 411.57 48.20 411.35 46.80 411.24 46.10 L 412.74 46.52 C 412.65 46.05 412.48 45.12 412.39 44.66 C 413.88 44.01 415.37 43.34 417.04 43.34 C 416.57 43.34 415.63 43.33 415.16 43.33 C 415.54 40.72 416.03 38.05 415.28 35.46 C 415.27 35.27 415.24 34.87 415.23 34.67 C 414.61 32.94 414.09 31.17 413.55 29.42 C 409.04 26.60 403.23 25.90 398.23 27.69 M 397.70 65.26 C 398.69 65.88 401.08 65.49 400.93 64.02 C 399.94 63.53 397.66 63.91 397.70 65.26 Z" />
<path fill="#D11342" opacity="1.00" d=" M 295.60 22.13 C 299.72 20.87 304.05 20.93 308.29 20.31 L 308.25 22.25 C 308.38 21.73 308.65 20.69 308.78 20.17 C 312.67 21.09 316.75 19.98 320.55 21.35 C 322.93 21.96 325.39 22.25 327.82 22.66 C 327.88 22.93 328.00 23.47 328.06 23.75 C 326.36 22.98 325.10 23.27 324.31 24.63 L 322.99 24.47 C 323.03 24.81 323.10 25.50 323.13 25.84 C 323.77 25.93 325.05 26.11 325.69 26.20 C 325.63 27.38 325.57 28.56 325.51 29.73 C 327.99 28.76 330.56 28.05 333.07 27.15 C 332.60 26.84 331.68 26.22 331.21 25.92 C 332.52 24.04 334.58 22.86 336.78 22.33 L 336.86 20.98 C 338.22 21.47 339.57 22.01 340.89 22.62 L 339.88 21.19 L 342.89 21.31 L 342.93 22.80 C 343.10 22.45 343.43 21.75 343.60 21.40 C 345.58 21.63 347.41 22.29 348.56 23.98 C 348.34 23.53 347.92 22.63 347.70 22.18 C 351.70 20.77 355.97 20.95 360.12 20.36 C 360.26 20.82 360.55 21.74 360.70 22.20 L 360.59 20.12 C 363.06 20.44 365.56 20.85 368.07 20.61 C 371.28 20.37 374.14 22.50 377.41 21.87 C 377.24 22.78 377.07 23.69 376.92 24.61 L 375.30 24.25 C 374.53 26.49 375.87 26.65 377.77 26.17 C 377.62 26.82 377.34 28.11 377.20 28.76 C 376.96 28.41 376.47 27.73 376.22 27.39 C 374.23 28.08 372.20 28.80 370.22 27.64 C 369.54 27.63 368.19 27.61 367.51 27.60 L 367.54 26.24 C 367.09 26.31 366.17 26.43 365.71 26.50 C 366.21 27.10 367.20 28.31 367.69 28.91 C 365.39 28.79 363.08 28.73 360.82 28.26 C 361.39 28.60 362.53 29.27 363.10 29.61 C 356.54 31.47 349.55 31.70 343.02 33.81 C 342.73 38.25 342.19 42.65 341.57 47.05 C 348.28 46.44 355.06 45.83 361.80 46.40 L 361.86 47.51 C 363.56 47.47 365.26 47.47 366.97 47.52 L 366.17 45.72 C 367.07 46.15 367.98 46.59 368.88 47.04 C 371.93 46.81 369.78 48.22 368.61 49.27 C 368.25 49.27 367.53 49.27 367.17 49.26 L 367.90 50.28 C 366.60 51.73 365.83 53.23 363.48 52.77 L 363.52 53.20 C 361.98 53.15 361.10 53.87 360.87 55.37 C 359.57 55.55 358.28 55.75 357.00 55.93 C 355.19 56.54 353.41 57.21 351.60 57.80 L 351.57 58.40 C 347.02 58.05 342.85 60.06 338.71 61.62 C 338.24 64.57 337.22 67.45 337.19 70.46 C 336.24 70.31 335.30 70.16 334.36 70.01 C 334.71 69.17 335.42 67.51 335.77 66.68 C 334.74 67.75 333.74 68.85 332.71 69.92 L 332.68 68.16 C 332.25 68.56 331.37 69.35 330.94 69.75 C 331.00 68.98 331.13 67.44 331.19 66.67 C 331.67 66.64 332.61 66.58 333.09 66.55 C 332.65 66.26 331.77 65.67 331.33 65.37 C 331.24 64.13 331.06 61.65 330.97 60.41 L 332.99 63.45 C 331.64 61.42 331.17 59.21 331.63 56.80 C 331.08 58.26 330.77 59.78 330.44 61.29 C 331.72 64.19 330.40 67.31 329.52 70.12 C 329.01 73.18 328.86 76.28 328.70 79.37 C 328.38 81.72 328.97 84.34 327.62 86.44 C 327.18 84.27 327.03 82.05 327.07 79.83 C 325.81 72.25 328.41 64.81 328.64 57.25 C 326.54 56.26 322.89 56.70 322.01 54.05 C 322.26 53.34 322.76 51.91 323.01 51.19 C 323.41 51.52 324.23 52.18 324.64 52.51 C 325.69 50.59 327.95 51.65 329.60 51.51 C 330.68 47.32 331.74 43.11 332.25 38.80 C 332.03 38.43 331.60 37.71 331.38 37.35 L 332.52 37.84 C 332.79 35.99 332.92 34.14 332.97 32.28 C 330.27 32.19 327.60 31.92 324.92 31.66 C 324.93 30.43 324.96 29.17 324.40 28.04 C 323.22 27.73 320.86 27.11 319.69 26.80 L 321.29 28.51 C 319.57 27.91 317.77 27.58 315.96 27.40 C 315.45 26.97 314.44 26.11 313.93 25.67 C 314.31 26.49 315.08 28.11 315.47 28.93 C 313.25 28.80 311.04 28.71 308.85 28.31 C 309.42 28.65 310.54 29.32 311.10 29.66 C 304.48 31.35 297.56 31.87 290.95 33.73 C 290.85 38.20 290.14 42.62 289.57 47.05 C 295.63 46.39 301.75 46.12 307.84 46.17 C 310.07 47.28 312.44 47.66 314.93 47.64 L 314.20 45.71 C 315.10 46.16 316.00 46.63 316.89 47.12 C 317.41 47.18 318.45 47.30 318.97 47.36 C 317.76 48.19 316.54 49.00 315.26 49.71 L 316.00 50.39 L 315.03 50.79 C 314.97 52.90 313.05 52.68 311.47 52.76 L 311.51 53.20 C 310.01 53.15 309.12 53.85 308.84 55.31 C 305.66 55.76 302.58 56.68 299.58 57.78 L 299.59 58.39 C 294.95 58.00 290.77 60.19 286.51 61.67 C 286.55 64.67 285.08 67.44 285.19 70.45 C 284.27 70.32 283.35 70.19 282.44 70.05 C 282.74 69.18 283.35 67.44 283.66 66.57 C 282.96 67.50 282.31 68.45 281.68 69.42 C 281.40 69.10 280.83 68.46 280.55 68.14 C 280.44 68.61 280.22 69.57 280.11 70.04 C 276.86 68.54 279.81 66.95 281.05 66.00 C 280.58 65.90 279.64 65.71 279.17 65.61 C 279.13 64.30 279.04 61.68 279.00 60.38 L 280.95 63.42 C 279.65 61.39 279.19 59.19 279.56 56.80 C 279.06 58.27 278.76 59.79 278.45 61.30 C 279.54 63.45 278.54 65.77 278.07 67.94 C 276.99 71.66 276.93 75.56 276.70 79.39 C 276.41 81.75 276.90 84.33 275.66 86.47 C 274.69 82.45 275.21 78.29 274.54 74.24 C 275.26 68.57 276.32 62.95 276.64 57.25 C 274.53 56.26 270.93 56.70 270.01 54.07 C 270.26 53.35 270.75 51.92 271.00 51.20 C 271.37 51.50 272.12 52.11 272.50 52.42 C 273.80 50.80 275.87 51.53 277.60 51.52 C 278.51 46.79 280.76 41.97 279.65 37.10 L 280.58 37.81 C 280.79 35.97 280.91 34.13 280.97 32.28 C 278.07 32.20 275.18 31.93 272.32 31.46 C 272.70 29.34 274.78 29.17 276.42 28.56 C 277.92 28.40 279.31 27.77 280.76 27.33 C 277.88 24.63 282.59 22.96 284.78 22.33 L 284.86 20.98 C 286.21 21.37 287.48 21.95 288.66 22.72 C 288.51 22.29 288.21 21.41 288.06 20.97 C 289.53 20.88 290.68 21.39 291.51 22.53 L 291.39 21.51 C 292.26 21.63 293.99 21.87 294.86 21.99 C 295.43 22.68 296.05 23.37 296.64 24.05 C 296.38 23.57 295.86 22.61 295.60 22.13 M 315.91 25.08 C 318.19 24.26 320.05 28.02 321.88 25.92 C 321.99 25.54 322.20 24.79 322.31 24.42 C 320.13 24.03 317.95 24.27 315.91 25.08 M 367.88 25.04 C 370.61 24.84 372.89 28.39 375.10 25.15 C 372.91 23.61 370.20 24.26 367.88 25.04 Z" />
<path fill="#D11342" opacity="1.00" d=" M 378.67 24.34 C 377.51 23.48 377.48 22.61 378.58 21.74 C 378.90 22.08 379.56 22.76 379.89 23.10 C 379.58 23.41 378.98 24.03 378.67 24.34 Z" />
<path fill="#D11342" opacity="1.00" d=" M 463.28 23.13 C 463.68 23.08 464.47 22.99 464.87 22.95 C 466.59 24.92 462.66 25.34 463.28 23.13 Z" />
<path fill="#D11342" opacity="1.00" d=" M 223.95 66.39 C 225.35 66.27 226.88 66.52 228.32 66.46 C 228.77 68.81 223.26 68.96 223.95 66.39 Z" />
<path fill="#D11342" opacity="1.00" d=" M 224.29 74.25 C 226.16 72.31 224.58 68.67 228.50 68.47 C 227.10 70.30 227.36 72.65 226.95 74.78 C 226.29 74.65 224.96 74.39 224.29 74.25 Z" />
<path fill="#D11342" opacity="1.00" d=" M 282.21 70.77 C 287.15 72.19 292.01 70.05 296.99 70.36 C 300.94 70.52 305.57 69.81 308.90 72.44 C 308.44 74.37 304.89 73.89 305.32 76.73 C 306.14 76.76 307.78 76.80 308.61 76.82 C 308.53 77.67 308.37 79.37 308.29 80.22 C 304.19 81.47 300.28 83.32 295.97 83.80 C 294.71 83.50 293.45 83.20 292.20 82.89 C 289.06 83.92 286.02 82.77 283.08 81.70 C 282.89 81.25 282.51 80.33 282.32 79.88 L 282.23 81.90 C 281.47 81.78 279.97 81.55 279.21 81.43 C 279.10 79.76 280.65 78.63 281.31 77.23 C 280.38 76.53 279.47 75.82 278.56 75.12 C 278.51 74.39 278.41 72.93 278.36 72.20 C 280.39 72.91 281.89 69.83 283.06 72.86 L 282.21 70.77 Z" />
<path fill="#D11342" opacity="1.00" d=" M 334.37 70.74 C 339.22 72.23 344.02 70.03 348.93 70.36 C 352.91 70.50 357.51 69.84 360.90 72.40 C 360.38 74.35 356.93 73.91 357.32 76.74 C 358.14 76.76 359.77 76.79 360.58 76.80 C 360.51 77.66 360.38 79.36 360.31 80.22 C 355.07 81.73 349.74 84.92 344.15 83.02 C 342.54 83.16 340.93 83.27 339.32 83.34 C 337.93 82.47 336.31 82.12 334.79 81.63 C 334.76 81.23 334.70 80.43 334.67 80.03 L 333.87 81.62 C 333.22 81.62 331.92 81.60 331.27 81.59 C 330.95 79.82 332.69 78.63 333.34 77.14 C 332.42 76.53 331.49 75.93 330.58 75.32 C 330.53 74.43 330.44 72.65 330.39 71.76 L 331.78 72.91 L 333.40 70.83 C 333.68 71.33 334.24 72.34 334.52 72.85 C 334.49 72.32 334.41 71.27 334.37 70.74 Z" />
<path fill="#D11342" opacity="1.00" d=" M 225.20 76.27 C 225.86 76.89 225.86 76.89 225.20 76.27 Z" />
<path fill="#D11342" opacity="1.00" d=" M 429.16 90.33 C 429.87 90.82 429.87 90.82 429.16 90.33 Z" />
<path fill="#D11342" opacity="1.00" d=" M 388.57 102.81 C 392.14 101.87 395.83 102.60 399.45 102.81 C 400.47 102.74 401.50 102.67 402.53 102.60 C 402.35 103.24 402.17 103.88 401.99 104.53 C 398.18 104.16 394.33 104.46 390.54 104.95 L 395.50 106.18 C 391.87 106.96 387.62 106.61 384.74 109.39 C 382.97 109.33 381.21 109.26 379.45 109.17 C 380.23 109.57 381.77 110.38 382.55 110.78 C 381.79 111.06 380.27 111.62 379.51 111.89 C 379.13 111.28 378.38 110.07 378.01 109.46 C 378.12 110.12 378.36 111.44 378.48 112.10 C 374.71 113.63 371.14 115.85 367.00 116.20 L 366.47 115.11 C 366.54 115.54 366.70 116.41 366.77 116.84 C 364.03 117.51 364.31 120.48 363.65 122.61 C 362.68 127.96 360.86 133.12 360.25 138.52 C 359.67 143.11 358.76 147.76 356.15 151.67 L 356.59 152.52 C 356.35 152.71 355.87 153.11 355.63 153.30 C 354.51 159.10 352.64 164.71 351.10 170.41 C 349.97 166.37 350.45 162.17 350.82 158.06 L 350.64 157.83 C 349.00 166.59 345.83 174.97 344.47 183.79 C 343.82 183.83 342.53 183.91 341.88 183.95 C 342.47 183.28 343.07 182.62 343.68 181.96 C 343.48 181.40 343.09 180.29 342.90 179.73 C 342.67 178.56 342.49 177.38 342.30 176.21 C 342.64 175.88 343.32 175.22 343.67 174.89 C 344.29 174.60 345.53 174.03 346.15 173.74 L 344.45 172.95 C 344.46 171.69 344.44 170.42 344.43 169.16 C 343.84 169.46 342.66 170.06 342.07 170.37 C 342.57 165.45 343.87 160.64 343.78 155.66 C 343.43 155.59 342.72 155.44 342.37 155.37 C 342.72 155.06 343.41 154.46 343.76 154.15 C 343.90 151.76 343.69 149.12 345.36 147.17 C 345.60 145.60 345.07 144.15 344.40 142.77 C 345.43 140.97 346.36 139.13 347.34 137.31 C 347.28 134.10 347.65 130.93 348.94 127.96 L 347.55 128.70 C 347.74 127.01 347.88 125.30 348.03 123.60 C 346.37 124.09 344.72 124.59 343.06 125.07 C 341.73 125.57 340.49 126.48 339.07 126.65 L 338.78 125.99 C 339.02 125.70 339.49 125.13 339.72 124.84 L 340.18 124.21 C 340.35 123.79 340.69 122.96 340.86 122.54 C 339.66 122.63 338.47 122.75 337.27 122.77 L 336.78 122.65 C 335.34 123.04 333.92 123.51 332.51 123.98 C 334.22 124.19 335.97 124.15 337.64 124.67 C 338.39 125.45 338.35 126.26 337.53 127.08 C 333.75 127.74 329.38 129.73 326.09 126.64 C 329.09 126.17 332.17 126.19 335.14 125.47 C 331.39 123.99 324.68 124.18 324.15 129.27 C 323.24 128.14 322.32 127.03 321.39 125.92 C 321.78 127.86 323.30 129.22 324.82 130.36 C 324.00 130.57 322.36 131.01 321.54 131.22 C 322.10 131.27 323.22 131.37 323.78 131.41 L 323.62 132.98 C 321.40 133.61 320.83 135.95 319.70 137.66 C 319.66 138.40 319.59 139.90 319.55 140.65 C 317.57 143.58 315.72 146.69 313.09 149.11 C 309.04 152.51 303.94 154.15 299.26 156.46 C 305.44 162.37 310.89 169.00 317.32 174.66 C 323.98 181.25 330.80 187.71 336.69 195.00 L 334.69 195.00 L 334.84 193.93 C 331.94 193.85 330.29 191.27 328.30 189.56 C 327.73 189.52 326.60 189.43 326.03 189.39 C 323.12 186.79 320.95 182.75 316.85 181.95 C 316.35 181.27 315.85 180.59 315.35 179.92 C 311.28 176.91 307.67 172.44 302.18 172.33 C 301.88 172.25 301.27 172.07 300.96 171.99 C 302.28 171.53 303.58 171.03 304.87 170.49 C 303.26 170.06 301.63 169.67 300.00 169.34 C 299.69 168.65 299.38 167.96 299.09 167.28 C 297.76 166.40 296.51 165.45 295.24 164.50 L 295.65 163.89 C 293.75 162.78 292.40 161.04 291.10 159.32 C 290.33 158.43 289.31 157.85 288.25 157.39 C 288.32 155.31 288.44 153.23 288.45 151.15 C 286.58 157.66 285.06 164.32 283.64 170.97 C 283.26 172.93 281.44 173.97 279.85 174.87 C 279.62 174.43 279.15 173.53 278.92 173.09 C 279.21 171.97 279.47 170.85 279.73 169.74 C 279.99 169.68 280.50 169.56 280.76 169.50 C 280.65 166.58 281.27 163.66 280.82 160.75 C 281.28 160.43 282.20 159.80 282.66 159.48 L 281.96 158.16 C 282.79 158.23 284.44 158.36 285.26 158.43 C 284.30 158.14 283.33 157.85 282.36 157.59 C 282.50 155.69 282.68 153.81 282.80 151.91 C 282.16 153.68 282.22 156.27 279.55 155.87 C 279.75 155.29 280.15 154.12 280.34 153.54 L 279.60 151.64 C 279.16 148.27 283.69 149.14 284.63 146.49 C 284.10 146.51 283.05 146.55 282.52 146.57 C 282.30 145.72 281.85 144.02 281.62 143.17 C 281.92 142.96 282.51 142.53 282.81 142.32 L 281.57 141.55 C 282.58 140.42 283.60 139.30 284.68 138.22 C 284.17 138.24 283.16 138.27 282.65 138.29 C 283.05 136.95 283.42 135.60 283.77 134.24 C 284.40 133.56 285.66 132.19 286.29 131.51 L 282.69 131.71 C 283.97 131.04 285.27 130.40 286.57 129.76 C 286.39 129.35 286.05 128.54 285.88 128.13 C 285.33 128.68 284.23 129.77 283.67 130.31 C 283.83 128.34 284.52 126.63 286.44 125.91 C 286.43 125.56 286.41 124.88 286.40 124.53 C 285.27 121.03 287.47 117.63 287.81 114.15 L 288.51 114.56 C 288.59 113.91 288.74 112.59 288.82 111.94 C 289.89 112.28 292.02 112.97 293.09 113.32 C 292.59 112.55 291.60 111.01 291.11 110.23 C 293.68 110.17 296.35 109.76 298.84 110.64 C 304.33 112.47 310.30 112.82 315.60 115.16 C 316.82 115.54 318.04 115.93 319.27 116.31 L 318.07 117.18 C 320.76 118.46 323.40 120.07 326.51 120.01 C 324.98 119.04 323.38 118.15 321.88 117.13 C 326.72 115.78 331.83 115.40 336.38 113.06 C 339.42 111.93 342.72 112.80 345.81 111.93 C 354.27 110.45 362.37 105.91 371.17 107.19 C 372.41 105.14 374.34 105.21 375.94 106.77 C 376.62 103.13 380.98 104.31 383.52 104.59 L 381.87 103.59 C 384.14 103.82 386.37 103.34 388.57 102.81 M 375.16 110.26 C 375.80 110.82 375.80 110.82 375.16 110.26 M 301.46 119.82 L 299.52 119.69 C 299.31 120.13 298.87 121.03 298.66 121.47 C 298.07 124.29 298.18 127.29 296.99 129.95 C 296.38 131.36 295.90 132.82 295.56 134.32 C 294.20 135.07 294.81 136.81 293.90 137.87 C 294.08 140.34 292.01 143.84 294.69 145.42 C 297.44 143.47 301.16 145.87 304.06 144.11 C 307.98 143.00 310.03 139.34 312.78 136.67 C 314.55 134.76 314.23 131.98 314.87 129.63 C 315.58 125.43 312.01 122.77 308.64 121.27 C 307.28 120.72 305.97 120.06 304.69 119.36 C 303.13 120.47 301.86 120.21 301.44 118.35 C 301.45 118.71 301.46 119.45 301.46 119.82 M 357.16 129.09 C 357.31 132.44 360.05 127.52 357.16 129.09 Z" />
<path fill="#D11342" opacity="1.00" d=" M 437.74 110.52 C 439.24 108.55 439.65 105.91 441.62 104.28 C 441.15 106.81 440.57 109.47 442.52 111.54 C 442.99 111.21 443.94 110.55 444.41 110.22 C 444.26 111.88 444.08 113.54 443.86 115.20 C 444.45 117.00 444.83 118.87 445.27 120.72 C 446.22 122.89 446.18 125.99 448.62 127.08 C 447.99 129.50 451.07 130.64 450.68 133.07 L 452.48 133.23 C 451.93 133.50 450.83 134.04 450.29 134.31 C 451.20 135.12 452.12 135.96 452.97 136.85 C 454.33 139.59 454.85 142.61 455.43 145.59 C 455.16 145.75 454.61 146.09 454.33 146.25 C 455.51 147.35 456.63 148.50 457.76 149.65 C 458.00 148.86 458.47 147.27 458.70 146.48 C 458.70 145.20 458.68 143.93 458.66 142.66 C 458.95 142.44 459.52 142.00 459.80 141.78 C 458.12 141.33 457.44 139.97 457.30 138.36 C 457.88 137.34 458.43 136.30 458.94 135.24 C 459.40 134.93 460.32 134.33 460.78 134.02 C 460.67 133.39 460.46 132.12 460.35 131.48 L 462.40 131.56 C 461.70 130.25 461.04 128.95 460.38 127.64 L 461.71 127.64 C 461.62 126.71 461.44 124.85 461.35 123.92 L 462.16 124.34 C 462.64 123.33 463.20 122.37 463.76 121.40 C 463.19 120.25 463.53 119.21 464.76 118.29 C 464.44 118.20 463.79 118.00 463.47 117.90 C 464.82 116.49 464.84 114.46 465.45 112.71 C 465.41 114.05 465.36 115.39 465.28 116.74 C 465.67 117.42 466.45 118.78 466.84 119.45 C 468.77 118.75 470.92 118.11 472.40 120.03 C 471.59 120.15 469.96 120.41 469.15 120.53 C 469.30 121.03 469.60 122.04 469.75 122.54 C 470.67 122.46 471.59 122.40 472.52 122.35 C 472.24 122.55 471.69 122.94 471.41 123.13 C 464.93 122.52 475.25 126.41 470.59 126.66 C 470.14 126.97 469.24 127.59 468.79 127.90 C 472.75 127.37 471.59 131.13 471.13 133.35 L 468.30 131.43 C 470.47 132.99 470.34 135.49 470.16 137.75 L 471.27 138.75 C 470.76 138.55 469.72 138.15 469.21 137.95 C 469.28 139.72 469.35 141.49 469.41 143.27 C 465.87 145.25 468.88 149.63 468.45 152.76 C 468.06 153.79 467.72 154.84 467.42 155.91 L 466.74 155.30 C 466.64 155.94 466.43 157.21 466.32 157.85 L 467.40 158.37 C 467.08 158.80 466.45 159.67 466.13 160.10 C 466.52 161.66 465.52 162.67 464.45 163.60 C 464.13 164.97 464.64 166.48 464.58 167.90 C 464.31 168.27 463.76 169.01 463.49 169.38 L 463.89 171.76 L 462.69 170.56 C 462.89 173.24 460.97 175.06 458.98 176.50 L 459.33 173.38 C 458.85 173.93 457.88 175.05 457.39 175.60 C 457.27 175.07 457.04 174.01 456.92 173.48 C 456.37 174.24 455.85 175.02 455.34 175.80 C 455.58 174.46 455.32 173.25 454.58 172.18 C 454.89 170.82 455.30 169.48 455.47 168.10 C 454.81 167.32 454.03 166.64 453.32 165.92 L 453.13 167.99 C 451.13 167.17 452.73 164.84 451.39 163.55 C 449.88 161.04 450.79 157.70 448.87 155.29 C 448.27 153.73 447.70 152.15 446.79 150.75 C 448.90 148.11 445.98 144.56 446.36 141.44 C 445.12 136.76 443.81 132.16 441.35 127.98 C 441.04 128.38 440.75 128.78 440.46 129.18 C 442.89 130.80 439.14 133.00 439.74 135.19 C 439.66 140.77 436.49 145.82 436.53 151.40 C 435.09 153.91 435.79 156.99 434.39 159.51 C 434.30 160.80 434.12 162.07 433.85 163.33 C 433.65 166.56 433.92 170.74 431.71 173.21 C 431.83 172.38 432.06 170.71 432.17 169.88 L 430.34 170.97 L 430.75 169.47 C 429.86 169.54 428.08 169.68 427.19 169.75 C 427.52 169.25 428.18 168.26 428.51 167.76 C 427.90 167.43 426.67 166.77 426.06 166.45 C 426.95 166.30 427.85 166.16 428.76 166.03 C 426.84 163.74 428.30 161.07 428.65 158.58 L 427.33 159.29 L 427.64 156.12 L 429.28 156.60 C 428.37 154.98 426.08 153.40 427.46 151.37 C 427.87 149.33 429.70 148.48 431.53 147.95 C 431.55 147.83 431.59 147.60 431.61 147.48 C 431.00 147.60 429.77 147.83 429.15 147.95 C 429.24 146.27 429.37 144.59 429.42 142.91 C 429.77 142.57 430.49 141.88 430.84 141.54 L 429.42 141.83 C 429.51 140.08 429.65 138.31 430.76 136.87 C 429.99 134.97 430.59 133.47 432.59 132.73 C 431.12 128.32 434.49 124.81 434.74 120.54 C 434.79 119.70 434.85 118.86 434.92 118.01 C 437.18 116.20 436.98 113.07 437.74 110.52 M 465.31 124.38 C 466.54 125.21 467.83 125.44 469.16 125.08 C 468.89 123.58 466.00 123.17 465.31 124.38 M 464.87 126.63 C 464.28 128.29 464.81 128.81 466.46 128.19 C 467.03 126.54 466.50 126.01 464.87 126.63 M 463.46 130.79 C 464.00 130.79 465.09 130.80 465.63 130.80 C 466.93 128.71 462.36 128.70 463.46 130.79 M 467.30 131.24 C 467.84 131.93 467.84 131.93 467.30 131.24 M 467.25 133.18 C 467.84 133.85 467.84 133.85 467.25 133.18 M 428.21 152.21 C 428.78 152.83 428.78 152.83 428.21 152.21 M 429.27 168.29 C 429.93 168.88 429.93 168.88 429.27 168.29 Z" />
<path fill="#D11342" opacity="1.00" d=" M 255.08 107.16 C 255.44 107.33 256.17 107.68 256.53 107.85 C 258.84 113.17 260.75 118.63 262.85 124.03 C 262.35 125.71 263.21 127.23 263.90 128.70 C 264.11 131.94 267.03 134.11 267.04 137.52 L 265.15 136.47 C 266.37 138.52 267.45 140.64 268.54 142.76 C 268.58 142.48 268.65 141.93 268.69 141.65 C 269.48 141.66 271.05 141.69 271.83 141.70 C 273.76 142.64 275.88 142.88 277.95 142.30 C 277.10 143.16 276.23 144.01 275.22 144.68 C 274.77 146.39 273.65 146.89 271.84 146.19 C 272.33 146.56 273.32 147.31 273.82 147.69 C 272.71 148.63 271.63 149.59 270.57 150.58 C 272.22 155.88 274.54 161.05 274.88 166.68 C 273.88 165.69 273.30 164.50 273.15 163.11 C 272.67 163.24 271.69 163.51 271.20 163.64 C 270.97 161.41 270.17 159.34 269.43 157.25 L 268.78 157.10 C 268.42 155.18 268.67 152.41 266.21 151.85 C 267.50 156.54 269.52 161.11 269.87 166.00 C 269.59 165.97 269.05 165.90 268.78 165.86 C 267.28 161.86 265.71 157.88 263.85 154.03 C 263.50 154.28 262.81 154.80 262.46 155.06 C 264.38 156.73 264.52 159.48 265.78 161.59 C 265.79 162.31 265.80 163.76 265.81 164.49 C 263.90 161.39 262.85 157.86 260.95 154.75 C 257.94 154.22 254.92 155.09 251.91 154.66 C 250.53 156.15 248.31 156.01 246.51 156.57 C 246.53 155.98 246.56 154.82 246.58 154.24 C 246.23 154.78 245.52 155.86 245.17 156.40 C 244.99 155.79 244.61 154.57 244.42 153.96 C 244.47 154.47 244.57 155.48 244.63 155.99 C 244.21 156.26 243.38 156.78 242.96 157.04 C 241.29 160.71 239.95 164.56 237.72 167.94 C 237.55 169.19 237.41 170.44 237.30 171.69 L 236.30 171.34 C 236.26 171.78 236.19 172.66 236.16 173.10 C 235.56 172.60 234.38 171.60 233.78 171.10 C 232.53 172.77 233.01 176.76 230.03 176.00 C 230.45 175.70 231.29 175.10 231.71 174.80 C 231.20 172.46 232.45 170.29 233.11 168.12 C 234.32 164.43 235.87 160.87 237.20 157.23 C 236.34 157.80 235.47 158.36 234.59 158.91 C 234.70 159.38 234.90 160.30 235.00 160.76 C 234.22 160.56 233.45 160.37 232.68 160.18 C 231.93 161.58 231.48 163.07 231.69 164.67 C 230.81 165.42 229.95 166.17 229.08 166.93 C 226.08 165.48 227.27 162.36 229.17 160.63 C 229.26 161.48 229.46 163.18 229.55 164.02 C 229.14 162.37 231.03 159.26 228.34 158.98 C 228.78 158.02 229.22 157.06 229.67 156.10 C 227.26 156.36 224.83 156.40 222.43 156.10 C 223.48 154.03 225.27 152.66 227.25 151.55 C 225.37 151.90 222.10 153.64 221.23 151.05 C 223.49 146.57 228.86 146.22 233.27 145.81 C 234.17 143.88 235.09 141.95 235.97 140.00 L 238.26 140.86 C 235.15 138.76 237.75 136.03 238.05 133.57 C 238.83 134.07 239.62 134.55 240.43 135.02 C 240.40 134.52 240.33 133.51 240.30 133.01 C 242.08 132.19 242.27 130.83 240.86 128.93 L 242.87 129.62 C 243.07 129.34 243.47 128.77 243.67 128.48 C 243.29 128.63 242.53 128.92 242.16 129.07 C 241.47 128.74 240.87 128.30 240.35 127.75 C 242.10 126.71 243.93 125.77 245.59 124.58 C 244.33 124.97 243.07 125.37 241.82 125.78 C 242.49 123.83 244.51 122.54 244.78 120.43 L 245.77 120.79 C 244.46 119.31 245.49 116.51 247.48 116.42 C 246.83 113.51 250.02 112.48 252.36 113.92 C 251.55 113.31 249.93 112.09 249.12 111.47 C 249.78 110.70 250.73 110.28 251.57 109.72 L 251.28 111.61 C 252.35 111.61 253.44 111.61 254.52 111.62 C 254.71 110.13 254.89 108.65 255.08 107.16 M 254.41 126.28 C 253.73 131.44 256.01 136.07 257.81 140.73 C 256.91 140.21 256.03 139.67 255.16 139.11 C 254.85 137.44 253.72 136.23 252.35 135.32 C 252.30 134.94 252.21 134.18 252.16 133.80 C 252.01 134.94 251.87 136.09 251.76 137.24 L 249.88 137.44 C 250.44 137.50 251.57 137.61 252.14 137.67 C 251.50 139.14 250.87 140.61 250.24 142.08 C 249.49 142.65 248.75 143.23 248.01 143.82 C 250.88 143.69 253.72 143.12 256.60 143.35 C 256.13 142.58 255.19 141.03 254.72 140.25 C 255.52 140.39 257.11 140.68 257.91 140.83 C 258.00 141.98 258.57 142.74 259.64 143.10 C 259.28 141.86 258.87 140.65 258.52 139.42 C 256.51 135.28 255.17 130.81 254.41 126.28 M 246.48 131.38 C 245.99 132.88 245.49 134.36 244.96 135.84 C 244.24 135.13 243.51 134.44 242.77 133.76 C 243.27 134.89 243.75 136.03 244.20 137.19 C 243.10 139.24 242.42 141.48 241.90 143.74 C 241.23 142.68 240.60 141.61 239.91 140.57 L 240.73 143.01 C 240.46 142.90 239.93 142.70 239.66 142.59 C 240.41 143.45 241.15 144.30 241.90 145.16 C 245.66 141.23 245.65 135.15 249.00 130.95 C 250.15 129.72 249.64 127.86 249.89 126.36 C 248.32 127.71 247.44 129.60 246.48 131.38 M 241.29 139.15 C 241.79 139.87 241.79 139.87 241.29 139.15 Z" />
<path fill="#D11342" opacity="1.00" d=" M 401.10 107.15 C 401.45 107.33 402.17 107.68 402.53 107.86 C 404.86 113.16 406.74 118.63 408.85 124.02 C 408.36 125.70 409.20 127.22 409.89 128.69 C 410.14 131.93 413.03 134.11 413.04 137.54 L 411.15 136.46 C 412.37 138.52 413.46 140.66 414.56 142.79 C 414.60 142.47 414.67 141.82 414.71 141.50 C 417.84 141.55 420.83 143.24 423.97 142.30 C 423.07 143.22 422.20 144.19 420.99 144.68 C 420.88 145.15 420.68 146.11 420.58 146.58 C 419.89 146.42 418.51 146.09 417.82 145.92 C 418.31 146.37 419.28 147.27 419.77 147.72 C 418.67 148.65 417.61 149.61 416.57 150.60 C 418.24 155.89 420.53 161.04 420.88 166.65 C 419.89 165.69 419.32 164.53 419.16 163.16 C 418.66 163.27 417.65 163.49 417.14 163.60 C 416.97 161.37 416.16 159.31 415.42 157.24 L 414.79 157.05 C 414.41 155.08 414.66 152.44 412.21 151.84 C 413.44 156.48 415.52 161.01 415.86 165.82 C 415.45 165.52 414.64 164.93 414.23 164.63 C 412.74 160.87 411.82 156.58 408.86 153.65 C 409.54 157.38 412.01 160.64 411.99 164.51 C 409.73 161.65 409.19 157.87 406.93 155.02 C 404.08 153.77 400.89 155.32 397.91 154.66 C 396.61 156.13 394.45 156.05 392.69 156.49 C 392.66 155.90 392.62 154.73 392.59 154.15 C 392.45 156.72 390.89 155.81 390.10 154.11 C 390.27 154.57 390.63 155.48 390.80 155.94 C 387.47 157.13 387.82 161.42 385.78 163.86 C 385.76 166.05 383.00 167.15 383.62 169.35 C 383.52 169.95 383.31 171.14 383.21 171.74 L 382.33 171.29 C 382.28 171.74 382.19 172.65 382.14 173.10 C 381.55 172.60 380.37 171.59 379.78 171.08 C 379.03 172.74 378.41 174.45 377.90 176.19 C 377.45 176.02 376.56 175.68 376.11 175.51 C 376.52 175.36 377.33 175.06 377.74 174.91 C 377.64 173.92 377.43 172.90 377.83 171.94 C 379.37 166.95 381.34 162.10 383.21 157.23 C 382.34 157.79 381.47 158.36 380.59 158.91 C 380.69 159.39 380.89 160.35 380.99 160.83 C 380.44 160.64 379.33 160.28 378.78 160.09 C 378.05 161.52 377.61 163.05 377.54 164.66 C 376.49 165.59 375.29 167.84 373.70 166.03 C 372.32 164.00 373.94 162.16 375.16 160.58 C 375.26 161.45 375.46 163.18 375.55 164.04 C 375.61 162.46 375.70 160.89 375.82 159.32 L 374.22 159.33 C 374.69 158.24 375.16 157.15 375.64 156.07 C 373.25 156.37 370.83 156.40 368.44 156.10 C 369.44 154.41 370.62 152.79 372.58 152.17 C 372.64 152.01 372.75 151.69 372.80 151.53 C 371.07 152.42 369.12 152.45 367.24 152.22 C 368.11 146.78 374.64 146.03 379.17 146.03 C 380.12 144.00 381.08 141.98 382.00 139.93 L 384.20 140.81 C 381.22 138.71 383.74 136.02 384.05 133.58 C 384.83 134.07 385.63 134.54 386.45 134.99 C 386.42 134.53 386.37 133.61 386.34 133.15 C 387.46 131.59 388.39 129.91 389.63 128.44 C 389.20 128.67 388.35 129.13 387.93 129.36 C 387.40 128.80 386.90 128.21 386.45 127.59 C 388.22 126.64 390.06 125.76 391.64 124.48 C 390.37 124.93 389.11 125.38 387.85 125.83 C 388.66 123.76 390.59 122.21 390.95 119.95 C 391.40 118.56 391.54 116.42 393.53 116.40 C 392.66 113.67 396.31 112.30 398.36 113.95 C 397.54 113.33 395.91 112.08 395.10 111.46 C 395.84 110.77 396.71 110.26 397.56 109.69 L 397.27 111.59 C 398.34 111.60 399.42 111.61 400.51 111.63 C 400.70 110.13 400.90 108.64 401.10 107.15 M 400.46 126.02 C 399.38 131.27 402.12 135.96 403.81 140.73 C 402.91 140.21 402.02 139.67 401.16 139.11 C 400.80 137.57 399.94 136.26 398.51 135.51 C 398.46 135.10 398.35 134.27 398.30 133.86 C 398.12 134.98 397.94 136.10 397.76 137.22 C 397.31 137.32 396.40 137.53 395.95 137.63 L 398.14 137.65 C 397.50 139.11 396.88 140.59 396.25 142.06 C 395.50 142.64 394.75 143.23 394.02 143.83 C 396.87 143.68 399.71 143.16 402.57 143.31 C 402.11 142.55 401.18 141.02 400.72 140.25 C 401.52 140.40 403.13 140.68 403.94 140.82 C 403.95 142.03 404.53 142.76 405.68 143.01 C 405.30 141.81 404.87 140.62 404.50 139.43 C 402.93 136.67 402.68 133.33 400.71 130.78 C 400.64 129.19 400.53 127.61 400.46 126.02 M 392.47 131.41 C 391.99 132.89 391.48 134.37 390.96 135.85 C 390.23 135.12 389.49 134.42 388.75 133.73 C 389.26 134.87 389.75 136.02 390.21 137.19 C 389.10 139.24 388.42 141.48 387.90 143.73 C 387.20 142.71 386.50 141.68 385.79 140.68 C 386.17 142.32 386.66 143.95 387.70 145.31 C 391.70 141.43 391.59 135.14 395.04 130.88 C 396.15 129.66 395.63 127.83 395.89 126.36 C 394.32 127.72 393.43 129.61 392.47 131.41 M 387.22 139.25 C 387.85 139.85 387.85 139.85 387.22 139.25 Z" />
<path fill="#D11342" opacity="1.00" d=" M 189.26 108.23 C 189.75 108.93 189.75 108.93 189.26 108.23 Z" />
<path fill="#D11342" opacity="1.00" d=" M 181.42 110.50 C 182.59 110.60 183.75 110.71 184.92 110.83 C 185.15 111.98 185.39 113.13 185.63 114.28 C 185.71 113.61 185.86 112.27 185.93 111.60 C 186.64 111.98 188.07 112.76 188.78 113.15 C 186.58 110.69 189.52 110.12 191.00 109.56 C 189.65 115.81 190.38 122.26 190.26 128.60 C 195.75 123.11 200.82 116.95 207.88 113.39 C 206.14 116.45 203.30 118.52 200.80 120.89 C 198.74 123.49 196.83 126.23 194.03 128.10 C 197.49 126.11 200.70 123.63 203.76 121.07 L 204.29 121.73 C 204.83 121.18 205.92 120.09 206.46 119.54 C 206.48 119.25 206.51 118.67 206.53 118.38 L 206.92 118.76 C 208.42 119.88 209.51 116.72 211.04 117.25 C 211.22 117.81 211.57 118.94 211.75 119.50 C 212.12 119.50 212.86 119.49 213.23 119.48 C 213.19 117.72 215.06 117.58 216.27 116.92 C 215.92 116.29 215.22 115.05 214.87 114.42 C 214.87 115.00 214.88 116.16 214.88 116.74 C 214.18 116.75 212.78 116.79 212.09 116.81 C 211.02 115.05 213.99 114.95 214.91 114.10 C 216.41 112.76 218.09 111.65 219.77 110.55 L 219.75 111.76 C 218.41 112.38 217.26 113.32 216.21 114.34 C 217.25 114.34 219.32 114.33 220.35 114.32 C 219.30 115.04 218.11 115.45 216.89 115.75 C 216.23 120.55 211.37 123.28 207.47 125.35 C 205.37 127.58 203.10 129.64 200.92 131.80 C 200.80 131.37 200.56 130.50 200.43 130.07 L 200.53 131.66 L 199.62 131.11 C 199.88 133.33 197.85 134.48 196.31 135.59 C 196.23 136.16 196.06 137.30 195.98 137.86 L 197.91 137.80 C 197.76 138.33 197.47 139.37 197.32 139.89 C 197.81 140.02 198.79 140.27 199.28 140.39 C 199.66 140.94 200.42 142.02 200.80 142.56 L 200.37 144.18 C 200.91 143.99 201.98 143.61 202.51 143.43 L 202.34 144.68 L 203.22 144.46 C 204.39 145.84 205.64 147.16 206.92 148.45 C 206.08 148.44 204.41 148.41 203.58 148.40 C 203.85 151.16 207.90 149.32 207.71 152.06 L 208.16 153.66 C 208.49 153.54 209.16 153.30 209.49 153.18 C 209.30 154.30 209.15 155.44 209.01 156.57 L 210.83 156.28 L 209.97 158.13 C 210.64 158.30 211.97 158.63 212.63 158.80 C 212.28 160.02 211.91 161.22 211.58 162.45 C 212.34 162.47 213.87 162.50 214.64 162.52 C 214.28 162.89 213.57 163.64 213.21 164.01 C 213.76 164.36 214.86 165.05 215.41 165.40 C 216.13 166.49 216.94 167.53 217.83 168.50 C 217.83 168.86 217.82 169.57 217.81 169.92 C 218.46 170.68 219.10 171.46 219.75 172.23 C 221.72 173.44 221.99 175.93 223.38 177.60 C 226.42 180.80 228.27 184.88 231.16 188.23 C 230.65 188.77 230.14 189.31 229.63 189.86 L 229.14 188.24 C 228.66 188.36 227.70 188.61 227.22 188.74 C 227.36 188.23 227.65 187.21 227.80 186.70 C 227.15 186.80 225.87 187.00 225.22 187.10 C 225.28 186.70 225.40 185.89 225.46 185.49 C 224.71 185.11 223.21 184.35 222.46 183.97 L 225.19 183.28 C 223.15 182.12 220.41 181.67 219.47 179.20 C 220.43 179.45 222.35 179.94 223.30 180.18 C 222.24 179.45 221.21 178.69 220.26 177.83 L 220.04 178.72 C 219.28 178.69 217.77 178.61 217.01 178.57 L 217.64 177.74 C 216.16 177.37 215.14 176.50 214.59 175.13 C 214.15 175.37 213.25 175.87 212.81 176.12 C 213.19 175.53 213.95 174.36 214.33 173.77 C 212.53 173.36 211.71 171.62 210.27 170.68 C 207.87 168.42 205.12 166.38 203.67 163.33 C 202.55 161.27 200.68 159.78 199.31 157.91 C 196.01 152.76 191.37 148.72 187.57 143.97 C 186.80 148.24 185.74 152.49 185.75 156.86 C 185.46 157.47 184.89 158.69 184.61 159.30 C 184.65 159.84 184.74 160.91 184.78 161.45 C 184.05 162.07 183.33 162.70 182.63 163.35 C 183.34 163.63 184.77 164.18 185.48 164.45 C 184.51 164.96 183.53 165.46 182.54 165.93 C 183.41 166.52 183.94 167.36 184.14 168.43 L 181.94 168.14 C 182.40 168.60 183.32 169.53 183.78 169.99 C 183.11 171.24 182.42 172.48 181.65 173.67 C 181.25 174.67 180.85 175.68 180.45 176.69 C 180.21 176.95 179.73 177.47 179.49 177.73 C 179.20 172.36 179.95 166.99 178.94 161.66 C 179.30 163.91 178.41 165.79 176.32 166.70 C 176.93 166.60 178.15 166.40 178.76 166.30 C 177.91 168.72 177.15 171.18 176.57 173.68 C 175.98 173.07 175.40 172.45 174.83 171.82 L 176.95 170.71 C 176.31 170.41 175.03 169.80 174.39 169.50 C 174.79 169.28 175.59 168.85 175.99 168.64 C 175.58 166.66 175.23 164.67 174.82 162.69 C 175.40 162.64 176.57 162.55 177.15 162.50 C 176.51 162.48 175.22 162.43 174.57 162.41 L 174.95 160.75 C 175.51 160.63 176.62 160.41 177.18 160.29 L 175.14 160.42 C 175.20 159.47 175.31 157.57 175.37 156.62 L 176.68 157.69 C 176.14 156.65 175.53 155.60 176.22 154.46 C 176.03 154.41 175.67 154.33 175.49 154.28 C 176.29 153.01 177.03 151.71 177.74 150.38 C 175.47 151.11 173.18 151.81 170.78 151.32 C 169.87 146.61 174.79 144.37 177.56 141.60 C 179.06 137.76 178.90 133.48 180.87 129.75 L 182.04 129.58 C 181.61 129.31 180.75 128.78 180.33 128.51 C 180.69 127.54 181.06 126.57 181.43 125.61 C 180.54 123.90 180.88 122.03 181.28 120.26 C 181.23 117.00 181.08 113.74 181.42 110.50 Z" />
<path fill="#D11342" opacity="1.00" d=" M 108.48 113.39 C 112.26 112.86 114.12 116.42 116.46 118.65 C 116.47 119.47 116.47 120.29 116.49 121.11 C 115.05 121.84 113.78 122.84 112.46 123.75 L 112.69 124.44 C 110.96 124.40 109.23 124.40 107.49 124.44 C 105.92 122.59 103.89 120.49 104.71 117.83 C 105.38 116.65 106.14 115.51 106.84 114.34 L 108.08 114.85 C 108.18 114.49 108.38 113.76 108.48 113.39 Z" />
<path fill="#D11342" opacity="1.00" d=" M 47.25 114.67 C 49.20 114.21 51.18 114.26 53.14 114.60 C 55.42 117.05 56.39 120.55 54.69 123.64 L 53.53 123.37 L 53.59 124.34 C 52.02 124.89 50.42 125.38 48.75 125.54 C 47.82 124.66 46.85 123.83 45.82 123.07 C 45.53 122.60 44.93 121.67 44.63 121.20 C 44.63 120.29 44.61 118.48 44.60 117.58 C 45.50 116.62 46.39 115.66 47.25 114.67 Z" />
<path fill="#D11342" opacity="1.00" d=" M 468.18 115.30 C 468.90 115.82 468.90 115.82 468.18 115.30 Z" />
<path fill="#D11342" opacity="1.00" d=" M 212.18 118.35 L 212.82 118.35 L 212.82 118.99 L 212.18 118.98 L 212.18 118.35 Z" />
<path fill="#D11342" opacity="1.00" d=" M 240.09 130.31 C 243.03 130.54 238.62 133.24 240.09 130.31 Z" />
<path fill="#D11342" opacity="1.00" d=" M 386.06 130.38 C 388.27 129.71 386.37 133.37 385.46 131.13 L 386.06 130.38 Z" />
<path fill="#D11342" opacity="1.00" d=" M 276.95 156.39 C 278.36 156.28 279.91 156.49 281.36 156.47 C 281.73 158.81 276.30 158.95 276.95 156.39 Z" />
<path fill="#D11342" opacity="1.00" d=" M 278.53 159.83 C 279.29 159.54 280.81 158.98 281.57 158.69 L 281.66 159.77 L 280.47 160.00 C 280.36 161.59 280.20 163.19 279.99 164.77 C 279.31 164.64 277.95 164.38 277.27 164.24 C 278.67 163.13 278.36 161.37 278.53 159.83 Z" />
<path fill="#D11342" opacity="1.00" d=" M 233.28 162.21 C 233.81 162.87 233.81 162.87 233.28 162.21 Z" />
<path fill="#D11342" opacity="1.00" d=" M 379.22 162.20 C 379.76 162.85 379.76 162.85 379.22 162.20 Z" />
<path fill="#D11342" opacity="1.00" d=" M 265.23 164.59 C 265.91 165.30 266.55 166.04 267.16 166.82 C 267.96 166.66 269.57 166.35 270.37 166.20 C 271.12 167.80 271.70 169.48 271.91 171.26 C 272.32 172.20 272.68 173.17 273.01 174.15 C 271.25 171.71 270.00 168.88 267.67 166.90 L 268.88 170.85 C 266.56 169.56 266.28 166.77 265.23 164.59 Z" />
<path fill="#D11342" opacity="1.00" d=" M 411.23 164.64 C 411.88 165.29 412.51 165.96 413.12 166.65 C 414.39 166.38 415.62 166.49 416.80 166.97 C 417.52 168.39 417.67 169.98 417.90 171.53 C 418.19 172.21 418.77 173.57 419.06 174.25 C 417.24 171.81 416.04 168.90 413.67 166.89 L 414.88 170.85 C 412.56 169.57 412.32 166.78 411.23 164.64 Z" />
<path fill="#D11342" opacity="1.00" d=" M 278.26 166.22 C 278.89 166.85 278.89 166.85 278.26 166.22 Z" />
<path fill="#D11342" opacity="1.00" d=" M 225.50 170.80 C 224.93 168.86 227.06 165.62 229.19 167.04 C 229.34 167.66 229.63 168.89 229.78 169.51 C 229.10 169.55 227.74 169.64 227.06 169.69 C 226.89 169.62 226.53 169.48 226.35 169.41 C 226.51 169.84 226.82 170.72 226.97 171.15 C 225.97 171.93 224.92 170.97 223.93 170.75 L 225.50 170.80 Z" />
<path fill="#D11342" opacity="1.00" d=" M 371.52 170.76 C 370.27 167.67 375.95 164.57 375.73 169.16 C 375.10 169.48 373.82 170.11 373.18 170.42 C 372.95 169.99 372.48 169.14 372.24 168.71 C 372.50 169.51 373.00 171.11 373.26 171.91 C 372.15 171.54 371.07 171.17 369.98 170.78 L 371.52 170.76 Z" />
<path fill="#D11342" opacity="1.00" d=" M 342.20 171.95 C 342.78 172.65 342.78 172.65 342.20 171.95 Z" />
</g>
</svg>
